HIERARCHY
ROOT Hips
{
	OFFSET 0.00000 0.00000 0.00000
	CHANNELS 6 Xposition Yposition Zposition Zrotation Yrotation Xrotation 
	JOINT LHipJoint
	{
		OFFSET 0 0 0
		CHANNELS 3 Zrotation Yrotation Xrotation
		JOINT LeftHip
		{
			OFFSET 3.13874 -1.57224 1.49786
			CHANNELS 3 Zrotation Yrotation Xrotation
			JOINT LeftKnee
			{
				OFFSET 2.10955 -5.79594 0.00000
				CHANNELS 3 Zrotation Yrotation Xrotation
				JOINT LeftAnkle
				{
					OFFSET 2.41843 -6.64458 0.00000
					CHANNELS 3 Zrotation Yrotation Xrotation
					JOINT LeftToe
					{
						OFFSET 0.04713 -0.12948 1.66229
						CHANNELS 3 Zrotation Yrotation Xrotation
						End Site
						{
							OFFSET 0.00000 -0.00000 0.85167
						}
					}
				}
			}
		}
	}
	JOINT RHipJoint
	{
		OFFSET 0 0 0
		CHANNELS 3 Zrotation Yrotation Xrotation
		JOINT RightHip
		{
			OFFSET -3.13988 -1.57224 1.49786
			CHANNELS 3 Zrotation Yrotation Xrotation
			JOINT RightKnee
			{
				OFFSET -2.15006 -5.90725 0.00000
				CHANNELS 3 Zrotation Yrotation Xrotation
				JOINT RightAnkle
				{
					OFFSET -2.34496 -6.44273 0.00000
					CHANNELS 3 Zrotation Yrotation Xrotation
					JOINT RightToe
					{
						OFFSET -0.08699 -0.23900 1.55223
						CHANNELS 3 Zrotation Yrotation Xrotation
						End Site
						{
							OFFSET -0.00000 -0.00000 0.80281
						}
					}
				}
			}
		}
	}
	JOINT lowerback
	{
		OFFSET 0 0 0
		CHANNELS 3 Zrotation Yrotation Xrotation
		JOINT Chest
		{
			OFFSET 0.01292 1.96517 -0.16495
			CHANNELS 3 Zrotation Yrotation Xrotation
			JOINT Chest2
			{
				OFFSET 0.02122 1.88666 0.19706
				CHANNELS 3 Zrotation Yrotation Xrotation
				JOINT lowerneck
				{
					OFFSET 0 0 0
					CHANNELS 3 Zrotation Yrotation Xrotation
					JOINT Neck
					{
						OFFSET -0.01683 1.81591 0.07903
						CHANNELS 3 Zrotation Yrotation Xrotation
						JOINT Head
						{
							OFFSET 0.00815 1.74013 -0.47700
							CHANNELS 3 Zrotation Yrotation Xrotation
							End Site
							{
								OFFSET -0.00204 1.83225 -0.16933
							}
						}
					}
				}
				JOINT LeftCollar
				{
					OFFSET 0 0 0
					CHANNELS 3 Zrotation Yrotation Xrotation
					JOINT LeftShoulder
					{
						OFFSET 3.38482 1.41533 0.19802
CHANNELS 3 Zrotation Xrotation Yrotation
						JOINT LeftElbow
						{
OFFSET 0 -4.327120 0.000000
CHANNELS 3 Zrotation Xrotation Yrotation
							JOINT LeftWrist
							{
OFFSET 0 -3.285870 -0.000000
CHANNELS 3 Zrotation Xrotation Yrotation
								JOINT lhand
								{
									OFFSET 0 0 0
CHANNELS 3 Zrotation Xrotation Yrotation
									JOINT LFingers
									{
OFFSET 0 -0.433160 -0.000000
CHANNELS 3 Zrotation Xrotation Yrotation
										End Site
										{
OFFSET 0 -0.349220 -0.000000
										}
									}
								}
								JOINT LThumb
								{
OFFSET 0 0.000000 0.000000
CHANNELS 3 Zrotation Xrotation Yrotation
									End Site
									{
OFFSET 0 -0.354560 0.354560
									}
								}
							}
						}
					}
				}
				JOINT RightCollar
				{
					OFFSET 0 0 0
					CHANNELS 3 Zrotation Yrotation Xrotation
					JOINT RightShoulder
					{
						OFFSET -3.09725 1.62858 -0.14144
CHANNELS 3 Zrotation Xrotation Yrotation
						JOINT RightElbow
						{
OFFSET 0 -4.291040 0.000000
CHANNELS 3 Zrotation Xrotation Yrotation
							JOINT RightWrist
							{
OFFSET 0 -3.227200 -0.000000
CHANNELS 3 Zrotation Xrotation Yrotation
								JOINT rhand
								{
									OFFSET 0 0 0
CHANNELS 3 Zrotation Xrotation Yrotation
									JOINT RFingers
									{
OFFSET 0 -0.543620 -0.000000
CHANNELS 3 Zrotation Xrotation Yrotation
										End Site
										{
OFFSET 0 -0.438280 -0.000000
										}
									}
								}
								JOINT RThumb
								{
OFFSET 0 0.000000 0.000000
CHANNELS 3 Zrotation Xrotation Yrotation
									End Site
									{
OFFSET 0 -0.444970 0.444970
									}
								}
							}
						}
					}
				}
			}
		}
	}
}
MOTION
Frames: 12
Frame Time: 0.008333333333333333
38.661396 15.962785 3.574629 362.041444 218.884519 372.433853 0.000000 0.000000 0.000000 -8.460578 -31.695332 -20.006107 0.760924 5.570750 15.543970 -0.092715 12.214966 -16.082720 12.413251 -18.559665 -67.292360 0.000000 0.000000 0.000000 25.363885 1.137594 -3.612633 -0.186778 -2.783107 7.675460 -2.588958 -5.018754 -32.482479 -0.052737 -1.481801 4.075435 5.363268 1.080404 12.647679 -0.980672 2.081875 -10.047797 -4.697789 -0.031314 -18.589511 5.503431 4.912810 -11.805243 -6.420451 5.860327 34.788906 -2.880740 1.599821 14.258468 0.000000 0.000000 0.000000 14.191656 21.369353 -31.313194 19.955057 -30.588156 5.508459 34.806733 13.542256 -20.331823 0.000000 0.000000 0.000000 -7.125000 0.000000 0.000000 6.737179 54.135454 -1.495148 0.000000 0.000000 0.000000 -13.077761 33.064253 35.198895 -18.011399 -28.171677 -4.554566 -26.401273 0.831360 19.678149 0.000000 0.000000 0.000000 7.125000 0.000000 0.000000 1.999762 51.733975 -0.331648
38.721976 15.970298 3.577223 362.086187 222.075721 372.502249 0.000000 0.000000 0.000000 -8.382428 -31.233568 -21.237147 0.648737 5.151548 14.341584 0.178057 12.254030 -19.548091 11.471407 -18.154846 -64.299059 0.000000 0.000000 0.000000 25.875253 0.765402 -3.013915 -0.149992 -2.494931 6.875712 -2.862069 -5.355663 -34.171281 -0.029708 -1.107341 3.044157 5.043241 0.881015 12.527942 -0.363319 1.836924 -10.031094 -3.722358 -0.031315 -18.542196 3.780329 4.908177 -12.207766 -5.557165 6.097635 34.839061 -2.171961 1.608452 14.280455 0.000000 0.000000 0.000000 13.411799 21.253156 -30.895455 19.726183 -30.310909 5.392479 29.267059 15.343884 -29.678337 0.000000 0.000000 0.000000 -7.125000 0.000000 0.000000 -2.160857 63.123060 0.950604 0.000000 0.000000 0.000000 -14.561550 32.874847 36.507792 -17.819866 -27.925888 -4.464562 -25.702992 -0.191675 19.435247 0.000000 0.000000 0.000000 7.125000 0.000000 0.000000 2.649907 51.345982 -0.414380
38.770285 15.978553 3.580723 362.303457 225.056731 372.396896 0.000000 0.000000 0.000000 -8.360965 -30.771462 -22.095222 0.528332 4.657562 12.934554 0.961437 10.739976 -25.286100 9.819339 -17.305329 -58.880412 0.000000 0.000000 0.000000 26.532381 0.313152 -2.493039 -0.117975 -2.213760 6.096803 -3.051426 -6.367561 -35.663586 -0.009472 -0.611329 1.680007 4.664181 0.734689 12.530751 0.306853 1.664412 -10.049123 -2.678855 0.005630 -18.612361 3.274632 4.271770 -11.535754 -6.142977 5.574358 33.608302 -2.360436 1.323860 13.543517 0.000000 0.000000 0.000000 12.239856 22.159172 -29.567188 20.055891 -30.709565 5.559880 28.666571 15.158581 -29.127747 0.000000 0.000000 0.000000 -7.125000 0.000000 0.000000 -2.638322 62.379493 1.113911 0.000000 0.000000 0.000000 -16.248136 32.637531 38.193910 -17.660904 -27.720723 -4.390341 -25.155939 -1.022352 19.409157 0.000000 0.000000 0.000000 7.125000 0.000000 0.000000 3.194223 51.221091 -0.490063
38.807275 15.979220 3.582708 362.661337 227.729591 372.340668 0.000000 0.000000 0.000000 -8.078612 -30.450465 -22.877658 0.476217 4.425325 12.276535 1.775864 8.891700 -29.695852 8.963888 -16.783439 -55.963619 0.000000 0.000000 0.000000 27.380550 0.403951 -2.005851 -0.091306 -1.947514 5.360550 -3.468634 -6.490853 -37.836678 -0.044829 -1.315365 3.617912 4.231513 0.672467 12.371494 0.965684 1.574791 -10.125145 -1.638273 0.081764 -18.638812 2.791642 3.952836 -11.339380 -6.571986 5.428216 32.986745 -2.443036 1.191453 13.219066 0.000000 0.000000 0.000000 11.197022 22.798674 -28.063156 20.227154 -30.915020 5.647616 27.806991 14.112843 -27.892275 0.000000 0.000000 0.000000 -7.125000 0.000000 0.000000 -3.108766 60.849408 1.201824 0.000000 0.000000 0.000000 -17.892722 32.248856 39.903008 -17.487176 -27.495394 -4.309850 -24.949510 -0.948134 19.798888 0.000000 0.000000 0.000000 7.125000 0.000000 0.000000 3.498691 51.602543 -0.569527
38.827842 15.976937 3.582632 363.221684 230.147972 372.036466 0.000000 0.000000 0.000000 -7.966943 -29.439263 -23.609926 0.442114 4.265979 11.826209 2.521195 7.580248 -33.391877 8.397156 -16.401529 -53.977368 0.000000 0.000000 0.000000 28.437222 1.161334 -1.091635 -0.064971 -1.640138 4.512085 -4.188816 -5.821397 -40.947386 -0.174785 -2.671556 7.366953 3.880879 0.622814 12.281147 1.611018 1.520756 -10.179599 -0.671452 0.161751 -18.680471 2.307841 3.837417 -11.546782 -6.829441 5.516350 32.830991 -2.435962 1.155987 13.197784 0.000000 0.000000 0.000000 10.231291 23.298953 -26.494280 20.240049 -30.929887 5.654463 27.521196 13.418111 -26.624723 0.000000 0.000000 0.000000 -7.125000 0.000000 0.000000 -2.910982 59.434211 1.027143 0.000000 0.000000 0.000000 -19.444875 31.636487 41.473380 -17.203459 -27.125105 -4.179770 -24.946000 0.006932 20.165947 0.000000 0.000000 0.000000 7.125000 0.000000 0.000000 3.596721 51.994865 -0.620119
38.831487 15.974494 3.580879 363.797164 232.303766 371.520968 0.000000 0.000000 0.000000 -8.324229 -27.652475 -24.137495 0.405578 4.088372 11.325360 3.444891 5.791333 -37.392069 7.669558 -15.867158 -51.357457 0.000000 0.000000 0.000000 29.441620 1.845704 0.162985 -0.037429 -1.236170 3.398977 -4.923803 -5.361148 -43.985913 -0.333472 -3.708105 10.257192 3.510049 0.576913 12.354572 2.182747 1.469451 -10.188656 0.218375 0.240966 -18.772496 1.820589 3.687359 -11.676202 -6.947100 5.513538 32.469318 -2.378455 1.112268 13.060767 0.000000 0.000000 0.000000 9.251320 24.246890 -24.646034 20.775253 -31.565024 5.931828 28.033981 13.699008 -26.317437 0.000000 0.000000 0.000000 -7.125000 0.000000 0.000000 -2.193844 59.233788 0.751708 0.000000 0.000000 0.000000 -20.942142 30.870659 42.918485 -16.892988 -26.716407 -4.039135 -24.852220 0.901595 20.148663 0.000000 0.000000 0.000000 7.125000 0.000000 0.000000 3.687366 51.959295 -0.632608
38.815949 15.970943 3.580553 364.113232 234.378855 371.105644 0.000000 0.000000 0.000000 -9.076475 -25.820469 -24.626650 0.395016 4.034401 11.173486 4.443891 3.485996 -41.205731 6.840124 -15.187315 -48.251869 0.000000 0.000000 0.000000 30.232590 2.474428 1.805312 -0.011879 -0.669429 1.839791 -5.712634 -5.227871 -47.156060 -0.430230 -4.201291 11.644945 3.111278 0.500606 12.495312 2.607797 1.354744 -10.193920 0.972075 0.283797 -18.901384 1.290155 3.419087 -11.705477 -6.970373 5.312644 31.935964 -2.299557 0.999829 12.814369 0.000000 0.000000 0.000000 8.429357 24.975382 -22.776690 20.864561 -31.669642 5.978786 30.751894 15.765171 -27.545983 0.000000 0.000000 0.000000 -7.125000 0.000000 0.000000 0.598912 61.243434 -0.280162 0.000000 0.000000 0.000000 -22.291851 30.077615 44.194258 -16.670987 -26.421916 -3.939854 -25.027288 1.653543 20.045530 0.000000 0.000000 0.000000 7.125000 0.000000 0.000000 3.482840 51.880738 -0.590287
38.791735 15.958146 3.596562 364.340548 236.473255 370.999576 0.000000 0.000000 0.000000 -9.766659 -24.238019 -25.937693 0.451970 4.309602 11.949785 5.306418 1.215367 -44.235881 5.882052 -14.310393 -44.501367 0.000000 0.000000 0.000000 31.065691 3.892378 3.526527 -0.000986 -0.065874 0.180993 -6.807743 -4.676263 -51.160452 -0.632536 -5.056718 14.077484 2.791444 0.387978 12.582462 2.936669 1.184774 -10.279502 1.591272 0.280777 -19.092985 0.970430 3.234777 -12.109985 -7.111237 5.229496 31.758408 -2.297604 0.925294 12.819040 0.000000 0.000000 0.000000 7.698346 25.396745 -20.774642 20.535433 -31.281609 5.806968 34.497643 18.826818 -29.006556 0.000000 0.000000 0.000000 -7.125000 0.000000 0.000000 4.849354 63.848415 -2.219158 0.000000 0.000000 0.000000 -23.440805 29.107157 45.207362 -16.481531 -26.169127 -3.855886 -25.603716 2.578492 20.243941 0.000000 0.000000 0.000000 7.125000 0.000000 0.000000 2.947688 52.198958 -0.521714
38.754161 15.951858 3.626021 364.697452 238.222234 370.654441 0.000000 0.000000 0.000000 -10.386548 -22.844565 -27.013135 0.555392 4.768913 13.251502 5.842730 0.084473 -46.149964 5.461425 -13.885248 -42.779871 0.000000 0.000000 0.000000 31.856444 5.256606 5.206989 -0.005979 0.448191 -1.231617 -7.941796 -3.172468 -54.795768 -1.062697 -6.525616 18.327823 2.606847 0.327857 12.893501 3.212528 1.122853 -10.345922 2.046028 0.306111 -19.407675 0.475219 3.444342 -12.608707 -6.870868 5.657485 31.886279 -2.051350 1.085602 12.981826 0.000000 0.000000 0.000000 6.932142 25.851316 -18.799300 20.132871 -30.801620 5.599491 34.901377 18.759180 -28.412347 0.000000 0.000000 0.000000 -7.125000 0.000000 0.000000 5.594896 63.314622 -2.533794 0.000000 0.000000 0.000000 -24.546719 28.037463 46.165565 -16.339075 -25.978267 -3.793295 -26.159667 3.285792 20.556198 0.000000 0.000000 0.000000 7.125000 0.000000 0.000000 2.458212 52.638328 -0.462446
38.706576 15.937980 3.641130 365.195192 239.857275 370.245232 0.000000 0.000000 0.000000 -10.795301 -21.258717 -28.142195 0.686686 5.293306 14.748120 5.903154 0.258510 -46.445752 5.488145 -13.912154 -42.888951 0.000000 0.000000 0.000000 32.801500 6.757259 7.043984 -0.024195 0.986382 -2.711646 -9.106523 -1.859235 -58.443953 -1.530718 -7.806151 22.129483 2.021483 0.302170 12.855625 3.598602 1.014603 -10.381812 2.866974 0.376830 -19.452431 0.331565 3.495271 -12.925559 -7.036525 5.877303 31.700717 -2.046434 1.161550 12.987531 0.000000 0.000000 0.000000 6.050409 26.315916 -16.569739 19.733589 -30.319582 5.396401 32.288650 16.594949 -27.621582 0.000000 0.000000 0.000000 -7.125000 0.000000 0.000000 2.360814 61.709346 -0.924326 0.000000 0.000000 0.000000 -25.727108 26.948597 47.149125 -16.338738 -25.977743 -3.793104 -26.376096 3.236953 20.312282 0.000000 0.000000 0.000000 7.125000 0.000000 0.000000 2.176096 52.415479 -0.397744
38.651207 15.924272 3.659574 366.050588 241.365265 369.545599 0.000000 0.000000 0.000000 -11.011952 -19.430133 -29.578758 0.849674 5.869273 16.408520 5.575490 2.216967 -45.650594 5.726353 -14.157802 -43.873199 0.000000 0.000000 0.000000 33.928876 8.325540 8.730090 -0.048818 1.419320 -3.903570 -10.211249 -1.315132 -61.930436 -1.787144 -8.404953 23.952682 1.541754 0.287284 12.853382 4.015128 0.946517 -10.453548 3.659459 0.453950 -19.570281 0.541871 3.376897 -13.282835 -7.701073 5.897588 31.602663 -2.340969 1.113358 13.067987 0.000000 0.000000 0.000000 5.146033 26.844583 -14.125417 19.345753 -29.845365 5.202105 31.847042 17.983427 -30.436242 0.000000 0.000000 0.000000 -7.125000 0.000000 0.000000 0.785221 64.649297 -0.379157 0.000000 0.000000 0.000000 -26.805917 25.914963 47.914846 -16.449757 -26.126615 -3.841933 -26.429319 2.872793 19.884465 0.000000 0.000000 0.000000 7.125000 0.000000 0.000000 2.018952 51.962624 -0.346171
38.577067 15.908388 3.683680 367.187795 242.698561 368.687369 0.000000 0.000000 0.000000 -10.927079 -18.086213 -31.053851 1.083118 6.607530 18.560491 5.278630 3.631577 -44.884035 5.957945 -14.379385 -44.797489 0.000000 0.000000 0.000000 35.124250 10.069172 10.224744 -0.070835 1.715066 -4.718866 -11.322961 -0.714534 -65.312345 -1.985895 -8.835451 25.282726 1.231407 0.284737 12.683322 4.413419 0.916298 -10.556178 4.324773 0.520099 -19.612807 1.603959 3.345665 -14.474688 -9.467401 6.180355 32.781740 -3.244837 1.031153 13.979003 0.000000 0.000000 0.000000 4.270567 27.352377 -11.640525 18.844521 -29.223442 4.955528 31.100607 17.062759 -28.632484 0.000000 0.000000 0.000000 -7.125000 0.000000 0.000000 0.584440 62.500391 -0.248245 0.000000 0.000000 0.000000 -27.714003 24.862676 48.422241 -16.641857 -26.382962 -3.927033 -26.600082 2.639074 19.981942 0.000000 0.000000 0.000000 7.125000 0.000000 0.000000 1.867290 52.099898 -0.326261
